<svg width="2560" height="1440" viewBox="0 0 2560 1440" fill="none" xmlns="http://www.w3.org/2000/svg">
<g clip-path="url(#clip0_1_3)">
<rect width="2560" height="1440" fill="url(#paint0_radial_1_3)"/>
<rect x="-24" y="-69" width="90" height="90" fill="black"/>
<rect x="69" y="-69" width="90" height="90" fill="black"/>
<rect x="162" y="-69" width="90" height="90" fill="black"/>
<rect x="255" y="-69" width="90" height="90" fill="black"/>
<rect x="348" y="-69" width="90" height="90" fill="black"/>
<rect x="441" y="-69" width="90" height="90" fill="black"/>
<rect x="534" y="-69" width="90" height="90" fill="black"/>
<rect x="627" y="-69" width="90" height="90" fill="black"/>
<rect x="720" y="-69" width="90" height="90" fill="black"/>
<rect x="813" y="-69" width="90" height="90" fill="black"/>
<rect x="906" y="-69" width="90" height="90" fill="black"/>
<rect x="999" y="-69" width="90" height="90" fill="black"/>
<rect x="1092" y="-69" width="90" height="90" fill="black"/>
<rect x="1185" y="-69" width="90" height="90" fill="black"/>
<rect x="1278" y="-69" width="90" height="90" fill="black"/>
<rect x="1371" y="-69" width="90" height="90" fill="black"/>
<rect x="1464" y="-69" width="90" height="90" fill="black"/>
<rect x="1557" y="-69" width="90" height="90" fill="black"/>
<rect x="1650" y="-69" width="90" height="90" fill="black"/>
<rect x="1743" y="-69" width="90" height="90" fill="black"/>
<rect x="1836" y="-69" width="90" height="90" fill="black"/>
<rect x="1929" y="-69" width="90" height="90" fill="black"/>
<rect x="2022" y="-69" width="90" height="90" fill="black"/>
<rect x="2115" y="-69" width="90" height="90" fill="black"/>
<rect x="2208" y="-69" width="90" height="90" fill="black"/>
<rect x="2301" y="-69" width="90" height="90" fill="black"/>
<rect x="2394" y="-69" width="90" height="90" fill="black"/>
<rect x="2487" y="-69" width="90" height="90" fill="black"/>
<rect x="-24" y="24" width="90" height="90" fill="black"/>
<rect x="69" y="24" width="90" height="90" fill="black"/>
<rect x="162" y="24" width="90" height="90" fill="black"/>
<rect x="255" y="24" width="90" height="90" fill="black"/>
<rect x="348" y="24" width="90" height="90" fill="black"/>
<rect x="441" y="24" width="90" height="90" fill="black"/>
<rect x="534" y="24" width="90" height="90" fill="black"/>
<rect x="627" y="24" width="90" height="90" fill="black"/>
<rect x="720" y="24" width="90" height="90" fill="black"/>
<rect x="813" y="24" width="90" height="90" fill="black"/>
<rect x="906" y="24" width="90" height="90" fill="black"/>
<rect x="999" y="24" width="90" height="90" fill="black"/>
<rect x="1092" y="24" width="90" height="90" fill="black"/>
<rect x="1185" y="24" width="90" height="90" fill="black"/>
<rect x="1278" y="24" width="90" height="90" fill="black"/>
<rect x="1371" y="24" width="90" height="90" fill="black"/>
<rect x="1464" y="24" width="90" height="90" fill="black"/>
<rect x="1557" y="24" width="90" height="90" fill="black"/>
<rect x="1650" y="24" width="90" height="90" fill="black"/>
<rect x="1743" y="24" width="90" height="90" fill="black"/>
<rect x="1836" y="24" width="90" height="90" fill="black"/>
<rect x="1929" y="24" width="90" height="90" fill="black"/>
<rect x="2022" y="24" width="90" height="90" fill="black"/>
<rect x="2115" y="24" width="90" height="90" fill="black"/>
<rect x="2208" y="24" width="90" height="90" fill="black"/>
<rect x="2301" y="24" width="90" height="90" fill="black"/>
<rect x="2394" y="24" width="90" height="90" fill="black"/>
<rect x="2487" y="24" width="90" height="90" fill="black"/>
<rect x="-24" y="117" width="90" height="90" fill="black"/>
<rect x="69" y="117" width="90" height="90" fill="black"/>
<rect x="162" y="117" width="90" height="90" fill="black"/>
<rect x="255" y="117" width="90" height="90" fill="black"/>
<rect x="348" y="117" width="90" height="90" fill="black"/>
<rect x="441" y="117" width="90" height="90" fill="black"/>
<rect x="534" y="117" width="90" height="90" fill="black"/>
<rect x="627" y="117" width="90" height="90" fill="black"/>
<rect x="720" y="117" width="90" height="90" fill="black"/>
<rect x="813" y="117" width="90" height="90" fill="black"/>
<rect x="906" y="117" width="90" height="90" fill="black"/>
<rect x="999" y="117" width="90" height="90" fill="black"/>
<rect x="1092" y="117" width="90" height="90" fill="black"/>
<rect x="1185" y="117" width="90" height="90" fill="black"/>
<rect x="1278" y="117" width="90" height="90" fill="black"/>
<rect x="1371" y="117" width="90" height="90" fill="black"/>
<rect x="1464" y="117" width="90" height="90" fill="black"/>
<rect x="1557" y="117" width="90" height="90" fill="black"/>
<rect x="1650" y="117" width="90" height="90" fill="black"/>
<rect x="1743" y="117" width="90" height="90" fill="black"/>
<rect x="1836" y="117" width="90" height="90" fill="black"/>
<rect x="1929" y="117" width="90" height="90" fill="black"/>
<rect x="2022" y="117" width="90" height="90" fill="black"/>
<rect x="2115" y="117" width="90" height="90" fill="black"/>
<rect x="2208" y="117" width="90" height="90" fill="black"/>
<rect x="2301" y="117" width="90" height="90" fill="black"/>
<rect x="2394" y="117" width="90" height="90" fill="black"/>
<rect x="2487" y="117" width="90" height="90" fill="black"/>
<rect x="-24" y="210" width="90" height="90" fill="black"/>
<rect x="69" y="210" width="90" height="90" fill="black"/>
<rect x="162" y="210" width="90" height="90" fill="black"/>
<rect x="255" y="210" width="90" height="90" fill="black"/>
<rect x="348" y="210" width="90" height="90" fill="black"/>
<rect x="441" y="210" width="90" height="90" fill="black"/>
<rect x="534" y="210" width="90" height="90" fill="black"/>
<rect x="627" y="210" width="90" height="90" fill="black"/>
<rect x="720" y="210" width="90" height="90" fill="black"/>
<rect x="813" y="210" width="90" height="90" fill="black"/>
<rect x="906" y="210" width="90" height="90" fill="black"/>
<rect x="999" y="210" width="90" height="90" fill="black"/>
<rect x="1092" y="210" width="90" height="90" fill="black"/>
<rect x="1185" y="210" width="90" height="90" fill="black"/>
<rect x="1278" y="210" width="90" height="90" fill="black"/>
<rect x="1371" y="210" width="90" height="90" fill="black"/>
<rect x="1464" y="210" width="90" height="90" fill="black"/>
<rect x="1557" y="210" width="90" height="90" fill="black"/>
<rect x="1650" y="210" width="90" height="90" fill="black"/>
<rect x="1743" y="210" width="90" height="90" fill="black"/>
<rect x="1836" y="210" width="90" height="90" fill="black"/>
<rect x="1929" y="210" width="90" height="90" fill="black"/>
<rect x="2022" y="210" width="90" height="90" fill="black"/>
<rect x="2115" y="210" width="90" height="90" fill="black"/>
<rect x="2208" y="210" width="90" height="90" fill="black"/>
<rect x="2301" y="210" width="90" height="90" fill="black"/>
<rect x="2394" y="210" width="90" height="90" fill="black"/>
<rect x="2487" y="210" width="90" height="90" fill="black"/>
<rect x="-24" y="303" width="90" height="90" fill="black"/>
<rect x="69" y="303" width="90" height="90" fill="black"/>
<rect x="162" y="303" width="90" height="90" fill="black"/>
<rect x="255" y="303" width="90" height="90" fill="black"/>
<rect x="348" y="303" width="90" height="90" fill="black"/>
<rect x="441" y="303" width="90" height="90" fill="black"/>
<rect x="534" y="303" width="90" height="90" fill="black"/>
<rect x="627" y="303" width="90" height="90" fill="black"/>
<rect x="720" y="303" width="90" height="90" fill="black"/>
<rect x="813" y="303" width="90" height="90" fill="black"/>
<rect x="906" y="303" width="90" height="90" fill="black"/>
<rect x="999" y="303" width="90" height="90" fill="black"/>
<rect x="1092" y="303" width="90" height="90" fill="black"/>
<rect x="1185" y="303" width="90" height="90" fill="black"/>
<rect x="1278" y="303" width="90" height="90" fill="black"/>
<rect x="1371" y="303" width="90" height="90" fill="black"/>
<rect x="1464" y="303" width="90" height="90" fill="black"/>
<rect x="1557" y="303" width="90" height="90" fill="black"/>
<rect x="1650" y="303" width="90" height="90" fill="black"/>
<rect x="1743" y="303" width="90" height="90" fill="black"/>
<rect x="1836" y="303" width="90" height="90" fill="black"/>
<rect x="1929" y="303" width="90" height="90" fill="black"/>
<rect x="2022" y="303" width="90" height="90" fill="black"/>
<rect x="2115" y="303" width="90" height="90" fill="black"/>
<rect x="2208" y="303" width="90" height="90" fill="black"/>
<rect x="2301" y="303" width="90" height="90" fill="black"/>
<rect x="2394" y="303" width="90" height="90" fill="black"/>
<rect x="2487" y="303" width="90" height="90" fill="black"/>
<rect x="-24" y="396" width="90" height="90" fill="black"/>
<rect x="69" y="396" width="90" height="90" fill="black"/>
<rect x="162" y="396" width="90" height="90" fill="black"/>
<rect x="255" y="396" width="90" height="90" fill="black"/>
<rect x="348" y="396" width="90" height="90" fill="black"/>
<rect x="441" y="396" width="90" height="90" fill="black"/>
<rect x="534" y="396" width="90" height="90" fill="black"/>
<rect x="627" y="396" width="90" height="90" fill="black"/>
<rect x="720" y="396" width="90" height="90" fill="black"/>
<rect x="813" y="396" width="90" height="90" fill="black"/>
<rect x="906" y="396" width="90" height="90" fill="black"/>
<rect x="999" y="396" width="90" height="90" fill="black"/>
<rect x="1092" y="396" width="90" height="90" fill="black"/>
<rect x="1185" y="396" width="90" height="90" fill="black"/>
<rect x="1278" y="396" width="90" height="90" fill="black"/>
<rect x="1371" y="396" width="90" height="90" fill="black"/>
<rect x="1464" y="396" width="90" height="90" fill="black"/>
<rect x="1557" y="396" width="90" height="90" fill="black"/>
<rect x="1650" y="396" width="90" height="90" fill="black"/>
<rect x="1743" y="396" width="90" height="90" fill="black"/>
<rect x="1836" y="396" width="90" height="90" fill="black"/>
<rect x="1929" y="396" width="90" height="90" fill="black"/>
<rect x="2022" y="396" width="90" height="90" fill="black"/>
<rect x="2115" y="396" width="90" height="90" fill="black"/>
<rect x="2208" y="396" width="90" height="90" fill="black"/>
<rect x="2301" y="396" width="90" height="90" fill="black"/>
<rect x="2394" y="396" width="90" height="90" fill="black"/>
<rect x="2487" y="396" width="90" height="90" fill="black"/>
<rect x="-24" y="489" width="90" height="90" fill="black"/>
<rect x="69" y="489" width="90" height="90" fill="black"/>
<rect x="162" y="489" width="90" height="90" fill="black"/>
<rect x="255" y="489" width="90" height="90" fill="black"/>
<rect x="348" y="489" width="90" height="90" fill="black"/>
<rect x="441" y="489" width="90" height="90" fill="black"/>
<rect x="534" y="489" width="90" height="90" fill="black"/>
<rect x="627" y="489" width="90" height="90" fill="black"/>
<rect x="720" y="489" width="90" height="90" fill="black"/>
<rect x="813" y="489" width="90" height="90" fill="black"/>
<rect x="906" y="489" width="90" height="90" fill="black"/>
<rect x="999" y="489" width="90" height="90" fill="black"/>
<rect x="1092" y="489" width="90" height="90" fill="black"/>
<rect x="1185" y="489" width="90" height="90" fill="black"/>
<rect x="1278" y="489" width="90" height="90" fill="black"/>
<rect x="1371" y="489" width="90" height="90" fill="black"/>
<rect x="1464" y="489" width="90" height="90" fill="black"/>
<rect x="1557" y="489" width="90" height="90" fill="black"/>
<rect x="1650" y="489" width="90" height="90" fill="black"/>
<rect x="1743" y="489" width="90" height="90" fill="black"/>
<rect x="1836" y="489" width="90" height="90" fill="black"/>
<rect x="1929" y="489" width="90" height="90" fill="black"/>
<rect x="2022" y="489" width="90" height="90" fill="black"/>
<rect x="2115" y="489" width="90" height="90" fill="black"/>
<rect x="2208" y="489" width="90" height="90" fill="black"/>
<rect x="2301" y="489" width="90" height="90" fill="black"/>
<rect x="2394" y="489" width="90" height="90" fill="black"/>
<rect x="2487" y="489" width="90" height="90" fill="black"/>
<rect x="-24" y="582" width="90" height="90" fill="black"/>
<rect x="69" y="582" width="90" height="90" fill="black"/>
<rect x="162" y="582" width="90" height="90" fill="black"/>
<rect x="255" y="582" width="90" height="90" fill="black"/>
<rect x="348" y="582" width="90" height="90" fill="black"/>
<rect x="441" y="582" width="90" height="90" fill="black"/>
<rect x="534" y="582" width="90" height="90" fill="black"/>
<rect x="627" y="582" width="90" height="90" fill="black"/>
<rect x="720" y="582" width="90" height="90" fill="black"/>
<rect x="813" y="582" width="90" height="90" fill="black"/>
<rect x="906" y="582" width="90" height="90" fill="black"/>
<rect x="999" y="582" width="90" height="90" fill="black"/>
<rect x="1092" y="582" width="90" height="90" fill="black"/>
<rect x="1185" y="582" width="90" height="90" fill="black"/>
<rect x="1278" y="582" width="90" height="90" fill="black"/>
<rect x="1371" y="582" width="90" height="90" fill="black"/>
<rect x="1464" y="582" width="90" height="90" fill="black"/>
<rect x="1557" y="582" width="90" height="90" fill="black"/>
<rect x="1650" y="582" width="90" height="90" fill="black"/>
<rect x="1743" y="582" width="90" height="90" fill="black"/>
<rect x="1836" y="582" width="90" height="90" fill="black"/>
<rect x="1929" y="582" width="90" height="90" fill="black"/>
<rect x="2022" y="582" width="90" height="90" fill="black"/>
<rect x="2115" y="582" width="90" height="90" fill="black"/>
<rect x="2208" y="582" width="90" height="90" fill="black"/>
<rect x="2301" y="582" width="90" height="90" fill="black"/>
<rect x="2394" y="582" width="90" height="90" fill="black"/>
<rect x="2487" y="582" width="90" height="90" fill="black"/>
<rect x="-24" y="675" width="90" height="90" fill="black"/>
<rect x="69" y="675" width="90" height="90" fill="black"/>
<rect x="162" y="675" width="90" height="90" fill="black"/>
<rect x="255" y="675" width="90" height="90" fill="black"/>
<rect x="348" y="675" width="90" height="90" fill="black"/>
<rect x="441" y="675" width="90" height="90" fill="black"/>
<rect x="534" y="675" width="90" height="90" fill="black"/>
<rect x="627" y="675" width="90" height="90" fill="black"/>
<rect x="720" y="675" width="90" height="90" fill="black"/>
<rect x="813" y="675" width="90" height="90" fill="black"/>
<rect x="906" y="675" width="90" height="90" fill="black"/>
<rect x="999" y="675" width="90" height="90" fill="black"/>
<rect x="1092" y="675" width="90" height="90" fill="black"/>
<rect x="1185" y="675" width="90" height="90" fill="black"/>
<rect x="1278" y="675" width="90" height="90" fill="black"/>
<rect x="1371" y="675" width="90" height="90" fill="black"/>
<rect x="1464" y="675" width="90" height="90" fill="black"/>
<rect x="1557" y="675" width="90" height="90" fill="black"/>
<rect x="1650" y="675" width="90" height="90" fill="black"/>
<rect x="1743" y="675" width="90" height="90" fill="black"/>
<rect x="1836" y="675" width="90" height="90" fill="black"/>
<rect x="1929" y="675" width="90" height="90" fill="black"/>
<rect x="2022" y="675" width="90" height="90" fill="black"/>
<rect x="2115" y="675" width="90" height="90" fill="black"/>
<rect x="2208" y="675" width="90" height="90" fill="black"/>
<rect x="2301" y="675" width="90" height="90" fill="black"/>
<rect x="2394" y="675" width="90" height="90" fill="black"/>
<rect x="2487" y="675" width="90" height="90" fill="black"/>
<rect x="-24" y="768" width="90" height="90" fill="black"/>
<rect x="69" y="768" width="90" height="90" fill="black"/>
<rect x="162" y="768" width="90" height="90" fill="black"/>
<rect x="255" y="768" width="90" height="90" fill="black"/>
<rect x="348" y="768" width="90" height="90" fill="black"/>
<rect x="441" y="768" width="90" height="90" fill="black"/>
<rect x="534" y="768" width="90" height="90" fill="black"/>
<rect x="627" y="768" width="90" height="90" fill="black"/>
<rect x="720" y="768" width="90" height="90" fill="black"/>
<rect x="813" y="768" width="90" height="90" fill="black"/>
<rect x="906" y="768" width="90" height="90" fill="black"/>
<rect x="999" y="768" width="90" height="90" fill="black"/>
<rect x="1092" y="768" width="90" height="90" fill="black"/>
<rect x="1185" y="768" width="90" height="90" fill="black"/>
<rect x="1278" y="768" width="90" height="90" fill="black"/>
<rect x="1371" y="768" width="90" height="90" fill="black"/>
<rect x="1464" y="768" width="90" height="90" fill="black"/>
<rect x="1557" y="768" width="90" height="90" fill="black"/>
<rect x="1650" y="768" width="90" height="90" fill="black"/>
<rect x="1743" y="768" width="90" height="90" fill="black"/>
<rect x="1836" y="768" width="90" height="90" fill="black"/>
<rect x="1929" y="768" width="90" height="90" fill="black"/>
<rect x="2022" y="768" width="90" height="90" fill="black"/>
<rect x="2115" y="768" width="90" height="90" fill="black"/>
<rect x="2208" y="768" width="90" height="90" fill="black"/>
<rect x="2301" y="768" width="90" height="90" fill="black"/>
<rect x="2394" y="768" width="90" height="90" fill="black"/>
<rect x="2487" y="768" width="90" height="90" fill="black"/>
<rect x="-24" y="861" width="90" height="90" fill="black"/>
<rect x="69" y="861" width="90" height="90" fill="black"/>
<rect x="162" y="861" width="90" height="90" fill="black"/>
<rect x="255" y="861" width="90" height="90" fill="black"/>
<rect x="348" y="861" width="90" height="90" fill="black"/>
<rect x="441" y="861" width="90" height="90" fill="black"/>
<rect x="534" y="861" width="90" height="90" fill="black"/>
<rect x="627" y="861" width="90" height="90" fill="black"/>
<rect x="720" y="861" width="90" height="90" fill="black"/>
<rect x="813" y="861" width="90" height="90" fill="black"/>
<rect x="906" y="861" width="90" height="90" fill="black"/>
<rect x="999" y="861" width="90" height="90" fill="black"/>
<rect x="1092" y="861" width="90" height="90" fill="black"/>
<rect x="1185" y="861" width="90" height="90" fill="black"/>
<rect x="1278" y="861" width="90" height="90" fill="black"/>
<rect x="1371" y="861" width="90" height="90" fill="black"/>
<rect x="1464" y="861" width="90" height="90" fill="black"/>
<rect x="1557" y="861" width="90" height="90" fill="black"/>
<rect x="1650" y="861" width="90" height="90" fill="black"/>
<rect x="1743" y="861" width="90" height="90" fill="black"/>
<rect x="1836" y="861" width="90" height="90" fill="black"/>
<rect x="1929" y="861" width="90" height="90" fill="black"/>
<rect x="2022" y="861" width="90" height="90" fill="black"/>
<rect x="2115" y="861" width="90" height="90" fill="black"/>
<rect x="2208" y="861" width="90" height="90" fill="black"/>
<rect x="2301" y="861" width="90" height="90" fill="black"/>
<rect x="2394" y="861" width="90" height="90" fill="black"/>
<rect x="2487" y="861" width="90" height="90" fill="black"/>
<rect x="-24" y="954" width="90" height="90" fill="black"/>
<rect x="69" y="954" width="90" height="90" fill="black"/>
<rect x="162" y="954" width="90" height="90" fill="black"/>
<rect x="255" y="954" width="90" height="90" fill="black"/>
<rect x="348" y="954" width="90" height="90" fill="black"/>
<rect x="441" y="954" width="90" height="90" fill="black"/>
<rect x="534" y="954" width="90" height="90" fill="black"/>
<rect x="627" y="954" width="90" height="90" fill="black"/>
<rect x="720" y="954" width="90" height="90" fill="black"/>
<rect x="813" y="954" width="90" height="90" fill="black"/>
<rect x="906" y="954" width="90" height="90" fill="black"/>
<rect x="999" y="954" width="90" height="90" fill="black"/>
<rect x="1092" y="954" width="90" height="90" fill="black"/>
<rect x="1185" y="954" width="90" height="90" fill="black"/>
<rect x="1278" y="954" width="90" height="90" fill="black"/>
<rect x="1371" y="954" width="90" height="90" fill="black"/>
<rect x="1464" y="954" width="90" height="90" fill="black"/>
<rect x="1557" y="954" width="90" height="90" fill="black"/>
<rect x="1650" y="954" width="90" height="90" fill="black"/>
<rect x="1743" y="954" width="90" height="90" fill="black"/>
<rect x="1836" y="954" width="90" height="90" fill="black"/>
<rect x="1929" y="954" width="90" height="90" fill="black"/>
<rect x="2022" y="954" width="90" height="90" fill="black"/>
<rect x="2115" y="954" width="90" height="90" fill="black"/>
<rect x="2208" y="954" width="90" height="90" fill="black"/>
<rect x="2301" y="954" width="90" height="90" fill="black"/>
<rect x="2394" y="954" width="90" height="90" fill="black"/>
<rect x="2487" y="954" width="90" height="90" fill="black"/>
<rect x="-24" y="1047" width="90" height="90" fill="black"/>
<rect x="69" y="1047" width="90" height="90" fill="black"/>
<rect x="162" y="1047" width="90" height="90" fill="black"/>
<rect x="255" y="1047" width="90" height="90" fill="black"/>
<rect x="348" y="1047" width="90" height="90" fill="black"/>
<rect x="441" y="1047" width="90" height="90" fill="black"/>
<rect x="534" y="1047" width="90" height="90" fill="black"/>
<rect x="627" y="1047" width="90" height="90" fill="black"/>
<rect x="720" y="1047" width="90" height="90" fill="black"/>
<rect x="813" y="1047" width="90" height="90" fill="black"/>
<rect x="906" y="1047" width="90" height="90" fill="black"/>
<rect x="999" y="1047" width="90" height="90" fill="black"/>
<rect x="1092" y="1047" width="90" height="90" fill="black"/>
<rect x="1185" y="1047" width="90" height="90" fill="black"/>
<rect x="1278" y="1047" width="90" height="90" fill="black"/>
<rect x="1371" y="1047" width="90" height="90" fill="black"/>
<rect x="1464" y="1047" width="90" height="90" fill="black"/>
<rect x="1557" y="1047" width="90" height="90" fill="black"/>
<rect x="1650" y="1047" width="90" height="90" fill="black"/>
<rect x="1743" y="1047" width="90" height="90" fill="black"/>
<rect x="1836" y="1047" width="90" height="90" fill="black"/>
<rect x="1929" y="1047" width="90" height="90" fill="black"/>
<rect x="2022" y="1047" width="90" height="90" fill="black"/>
<rect x="2115" y="1047" width="90" height="90" fill="black"/>
<rect x="2208" y="1047" width="90" height="90" fill="black"/>
<rect x="2301" y="1047" width="90" height="90" fill="black"/>
<rect x="2394" y="1047" width="90" height="90" fill="black"/>
<rect x="2487" y="1047" width="90" height="90" fill="black"/>
<rect x="-24" y="1140" width="90" height="90" fill="black"/>
<rect x="69" y="1140" width="90" height="90" fill="black"/>
<rect x="162" y="1140" width="90" height="90" fill="black"/>
<rect x="255" y="1140" width="90" height="90" fill="black"/>
<rect x="348" y="1140" width="90" height="90" fill="black"/>
<rect x="441" y="1140" width="90" height="90" fill="black"/>
<rect x="534" y="1140" width="90" height="90" fill="black"/>
<rect x="627" y="1140" width="90" height="90" fill="black"/>
<rect x="720" y="1140" width="90" height="90" fill="black"/>
<rect x="813" y="1140" width="90" height="90" fill="black"/>
<rect x="906" y="1140" width="90" height="90" fill="black"/>
<rect x="999" y="1140" width="90" height="90" fill="black"/>
<rect x="1092" y="1140" width="90" height="90" fill="black"/>
<rect x="1185" y="1140" width="90" height="90" fill="black"/>
<rect x="1278" y="1140" width="90" height="90" fill="black"/>
<rect x="1371" y="1140" width="90" height="90" fill="black"/>
<rect x="1464" y="1140" width="90" height="90" fill="black"/>
<rect x="1557" y="1140" width="90" height="90" fill="black"/>
<rect x="1650" y="1140" width="90" height="90" fill="black"/>
<rect x="1743" y="1140" width="90" height="90" fill="black"/>
<rect x="1836" y="1140" width="90" height="90" fill="black"/>
<rect x="1929" y="1140" width="90" height="90" fill="black"/>
<rect x="2022" y="1140" width="90" height="90" fill="black"/>
<rect x="2115" y="1140" width="90" height="90" fill="black"/>
<rect x="2208" y="1140" width="90" height="90" fill="black"/>
<rect x="2301" y="1140" width="90" height="90" fill="black"/>
<rect x="2394" y="1140" width="90" height="90" fill="black"/>
<rect x="2487" y="1140" width="90" height="90" fill="black"/>
<rect x="-24" y="1233" width="90" height="90" fill="black"/>
<rect x="69" y="1233" width="90" height="90" fill="black"/>
<rect x="162" y="1233" width="90" height="90" fill="black"/>
<rect x="255" y="1233" width="90" height="90" fill="black"/>
<rect x="348" y="1233" width="90" height="90" fill="black"/>
<rect x="441" y="1233" width="90" height="90" fill="black"/>
<rect x="534" y="1233" width="90" height="90" fill="black"/>
<rect x="627" y="1233" width="90" height="90" fill="black"/>
<rect x="720" y="1233" width="90" height="90" fill="black"/>
<rect x="813" y="1233" width="90" height="90" fill="black"/>
<rect x="906" y="1233" width="90" height="90" fill="black"/>
<rect x="999" y="1233" width="90" height="90" fill="black"/>
<rect x="1092" y="1233" width="90" height="90" fill="black"/>
<rect x="1185" y="1233" width="90" height="90" fill="black"/>
<rect x="1278" y="1233" width="90" height="90" fill="black"/>
<rect x="1371" y="1233" width="90" height="90" fill="black"/>
<rect x="1464" y="1233" width="90" height="90" fill="black"/>
<rect x="1557" y="1233" width="90" height="90" fill="black"/>
<rect x="1650" y="1233" width="90" height="90" fill="black"/>
<rect x="1743" y="1233" width="90" height="90" fill="black"/>
<rect x="1836" y="1233" width="90" height="90" fill="black"/>
<rect x="1929" y="1233" width="90" height="90" fill="black"/>
<rect x="2022" y="1233" width="90" height="90" fill="black"/>
<rect x="2115" y="1233" width="90" height="90" fill="black"/>
<rect x="2208" y="1233" width="90" height="90" fill="black"/>
<rect x="2301" y="1233" width="90" height="90" fill="black"/>
<rect x="2394" y="1233" width="90" height="90" fill="black"/>
<rect x="2487" y="1233" width="90" height="90" fill="black"/>
<rect x="-24" y="1326" width="90" height="90" fill="black"/>
<rect x="69" y="1326" width="90" height="90" fill="black"/>
<rect x="162" y="1326" width="90" height="90" fill="black"/>
<rect x="255" y="1326" width="90" height="90" fill="black"/>
<rect x="348" y="1326" width="90" height="90" fill="black"/>
<rect x="441" y="1326" width="90" height="90" fill="black"/>
<rect x="534" y="1326" width="90" height="90" fill="black"/>
<rect x="627" y="1326" width="90" height="90" fill="black"/>
<rect x="720" y="1326" width="90" height="90" fill="black"/>
<rect x="813" y="1326" width="90" height="90" fill="black"/>
<rect x="906" y="1326" width="90" height="90" fill="black"/>
<rect x="999" y="1326" width="90" height="90" fill="black"/>
<rect x="1092" y="1326" width="90" height="90" fill="black"/>
<rect x="1185" y="1326" width="90" height="90" fill="black"/>
<rect x="1278" y="1326" width="90" height="90" fill="black"/>
<rect x="1371" y="1326" width="90" height="90" fill="black"/>
<rect x="1464" y="1326" width="90" height="90" fill="black"/>
<rect x="1557" y="1326" width="90" height="90" fill="black"/>
<rect x="1650" y="1326" width="90" height="90" fill="black"/>
<rect x="1743" y="1326" width="90" height="90" fill="black"/>
<rect x="1836" y="1326" width="90" height="90" fill="black"/>
<rect x="1929" y="1326" width="90" height="90" fill="black"/>
<rect x="2022" y="1326" width="90" height="90" fill="black"/>
<rect x="2115" y="1326" width="90" height="90" fill="black"/>
<rect x="2208" y="1326" width="90" height="90" fill="black"/>
<rect x="2301" y="1326" width="90" height="90" fill="black"/>
<rect x="2394" y="1326" width="90" height="90" fill="black"/>
<rect x="2487" y="1326" width="90" height="90" fill="black"/>
<rect x="-24" y="1419" width="90" height="90" fill="black"/>
<rect x="69" y="1419" width="90" height="90" fill="black"/>
<rect x="162" y="1419" width="90" height="90" fill="black"/>
<rect x="255" y="1419" width="90" height="90" fill="black"/>
<rect x="348" y="1419" width="90" height="90" fill="black"/>
<rect x="441" y="1419" width="90" height="90" fill="black"/>
<rect x="534" y="1419" width="90" height="90" fill="black"/>
<rect x="627" y="1419" width="90" height="90" fill="black"/>
<rect x="720" y="1419" width="90" height="90" fill="black"/>
<rect x="813" y="1419" width="90" height="90" fill="black"/>
<rect x="906" y="1419" width="90" height="90" fill="black"/>
<rect x="999" y="1419" width="90" height="90" fill="black"/>
<rect x="1092" y="1419" width="90" height="90" fill="black"/>
<rect x="1185" y="1419" width="90" height="90" fill="black"/>
<rect x="1278" y="1419" width="90" height="90" fill="black"/>
<rect x="1371" y="1419" width="90" height="90" fill="black"/>
<rect x="1464" y="1419" width="90" height="90" fill="black"/>
<rect x="1557" y="1419" width="90" height="90" fill="black"/>
<rect x="1650" y="1419" width="90" height="90" fill="black"/>
<rect x="1743" y="1419" width="90" height="90" fill="black"/>
<rect x="1836" y="1419" width="90" height="90" fill="black"/>
<rect x="1929" y="1419" width="90" height="90" fill="black"/>
<rect x="2022" y="1419" width="90" height="90" fill="black"/>
<rect x="2115" y="1419" width="90" height="90" fill="black"/>
<rect x="2208" y="1419" width="90" height="90" fill="black"/>
<rect x="2301" y="1419" width="90" height="90" fill="black"/>
<rect x="2394" y="1419" width="90" height="90" fill="black"/>
<rect x="2487" y="1419" width="90" height="90" fill="black"/>
</g>
<defs>
<radialGradient id="paint0_radial_1_3" cx="0" cy="0" r="1" gradientUnits="userSpaceOnUse" gradientTransform="translate(1280.69 720) rotate(-180) scale(1705.98 993.317)">
<stop stop-color="#B96D00"/>
<stop offset="1" stop-color="#252525"/>
</radialGradient>
<clipPath id="clip0_1_3">
<rect width="2560" height="1440" fill="white"/>
</clipPath>
</defs>
</svg>
