<svg width="478" height="450" viewBox="0 0 478 450" fill="none" xmlns="http://www.w3.org/2000/svg">
<path fill-rule="evenodd" clip-rule="evenodd" d="M239 450C370.996 450 478 349.264 478 225C478 100.736 370.996 0 239 0C107.004 0 0 100.736 0 225C0 231.704 0.311472 238.34 0.921535 244.895C10.5584 151.029 94.5882 77.6472 196.824 77.6472C305.526 77.6472 393.647 160.606 393.647 262.942C393.647 362.078 310.949 443.031 206.954 447.995C217.436 449.317 228.133 450 239 450Z" fill="#2B2B2B"/>
<path fill-rule="evenodd" clip-rule="evenodd" d="M216.5 450C322.815 450 409 399.184 409 336.5C409 273.816 322.815 223 216.5 223C110.185 223 24 273.816 24 336.5C24 339.882 24.2509 343.229 24.7422 346.536C32.504 299.185 100.185 262.169 182.529 262.169C270.083 262.169 341.059 304.017 341.059 355.639C341.059 405.649 274.448 446.486 190.684 448.988C199.128 449.655 207.746 450 216.5 450Z" fill="#2B2B2B"/>
<ellipse cx="141" cy="373" rx="43" ry="42" fill="#2B2B2B"/>
<path d="M215 448H241V450H215V448Z" fill="#2B2B2B"/>
</svg>
